<svg width="584" height="584" viewBox="0 0 584 584" fill="none" xmlns="http://www.w3.org/2000/svg">
<path d="M276.582 214.821L214.953 153.192L153.324 214.821L214.953 276.45L276.582 214.821Z" fill="black"/>
<path d="M276.582 61.6288L214.953 0L153.324 61.6288L214.953 123.258L276.582 61.6288Z" fill="black"/>
<path d="M429.932 214.856L368.303 153.228L306.674 214.856L368.303 276.485L429.932 214.856Z" fill="black"/>
<path d="M429.932 61.6639L368.303 0.0351562L306.674 61.6639L368.303 123.293L429.932 61.6639Z" fill="black"/>
<path d="M583.232 214.856L521.604 153.228L459.975 214.856L521.604 276.485L583.232 214.856Z" fill="black"/>
<path d="M583.232 61.6639L521.604 0.0351562L459.975 61.6639L521.604 123.293L583.232 61.6639Z" fill="black"/>
<path d="M123.258 368.23L61.6289 306.601L0.000121117 368.23L61.6289 429.859L123.258 368.23Z" fill="black"/>
<path d="M276.607 368.206L214.979 306.577L153.35 368.206L214.979 429.835L276.607 368.206Z" fill="black"/>
<path d="M429.955 368.241L368.326 306.612L306.697 368.241L368.326 429.87L429.955 368.241Z" fill="black"/>
<path d="M123.305 521.614L61.6758 459.986L0.0469961 521.614L61.6758 583.243L123.305 521.614Z" fill="black"/>
<path d="M276.654 521.59L215.025 459.962L153.397 521.59L215.025 583.219L276.654 521.59Z" fill="black"/>
<path d="M430.004 521.626L368.375 459.997L306.746 521.626L368.375 583.254L430.004 521.626Z" fill="black"/>
</svg>
