<svg width="584" height="584" viewBox="0 0 584 584" fill="none" xmlns="http://www.w3.org/2000/svg">
<path d="M123.258 214.821L61.6289 153.192L0.000121117 214.821L61.6289 276.45L123.258 214.821Z" fill="black"/>
<path d="M123.258 61.6288L61.6289 0L0.000121117 61.6288L61.6289 123.258L123.258 61.6288Z" fill="black"/>
<path d="M276.607 214.797L214.979 153.168L153.35 214.797L214.979 276.426L276.607 214.797Z" fill="black"/>
<path d="M429.957 214.832L368.328 153.203L306.699 214.832L368.328 276.461L429.957 214.832Z" fill="black"/>
<path d="M583.258 61.6398L521.629 0.0109863L460 61.6398L521.629 123.269L583.258 61.6398Z" fill="black"/>
<path d="M276.633 368.182L215.004 306.553L153.375 368.182L215.004 429.811L276.633 368.182Z" fill="black"/>
<path d="M429.98 368.217L368.352 306.588L306.723 368.217L368.352 429.846L429.98 368.217Z" fill="black"/>
<path d="M583.281 368.217L521.652 306.588L460.024 368.217L521.652 429.846L583.281 368.217Z" fill="black"/>
<path d="M123.33 521.59L61.7012 459.961L0.0723867 521.59L61.7012 583.219L123.33 521.59Z" fill="black"/>
<path d="M583.33 521.601L521.701 459.973L460.072 521.601L521.701 583.23L583.33 521.601Z" fill="black"/>
</svg>
