<svg width="584" height="584" viewBox="0 0 584 584" fill="none" xmlns="http://www.w3.org/2000/svg">
<path d="M123.258 214.845L61.6289 153.217L0.000121117 214.845L61.6289 276.474L123.258 214.845Z" fill="black"/>
<path d="M276.607 214.821L214.979 153.192L153.35 214.821L214.979 276.45L276.607 214.821Z" fill="black"/>
<path d="M276.607 61.6288L214.979 0L153.35 61.6288L214.979 123.258L276.607 61.6288Z" fill="black"/>
<path d="M429.957 214.856L368.328 153.228L306.699 214.856L368.328 276.485L429.957 214.856Z" fill="black"/>
<path d="M429.957 61.6639L368.328 0.0351562L306.699 61.6639L368.328 123.293L429.957 61.6639Z" fill="black"/>
<path d="M583.258 214.856L521.629 153.228L460 214.856L521.629 276.485L583.258 214.856Z" fill="black"/>
<path d="M123.283 368.23L61.6543 306.601L0.0255117 368.23L61.6543 429.859L123.283 368.23Z" fill="black"/>
<path d="M276.633 368.206L215.004 306.577L153.375 368.206L215.004 429.835L276.633 368.206Z" fill="black"/>
<path d="M429.98 368.241L368.352 306.612L306.723 368.241L368.352 429.87L429.98 368.241Z" fill="black"/>
<path d="M583.281 368.241L521.652 306.612L460.024 368.241L521.652 429.87L583.281 368.241Z" fill="black"/>
<path d="M276.68 521.59L215.051 459.962L153.422 521.59L215.051 583.219L276.68 521.59Z" fill="black"/>
<path d="M430.029 521.626L368.4 459.997L306.772 521.626L368.4 583.254L430.029 521.626Z" fill="black"/>
</svg>
